<?xml version="1.0" encoding="UTF-8" standalone="no"?>
<!DOCTYPE svg PUBLIC "-//W3C//DTD SVG 1.1//EN" "http://www.w3.org/Graphics/SVG/1.1/DTD/svg11.dtd">
<svg version="1.1" xmlns="http://www.w3.org/2000/svg" xmlns:xlink="http://www.w3.org/1999/xlink" preserveAspectRatio="xMidYMid meet" viewBox="0 0 640 640" width="640" height="640"><defs><path d="M29.44 5.15C89.98 65.69 574.31 550.03 634.85 610.57C641.7 617.42 641.7 628.2 634.85 635.05C628.23 641.67 617.22 641.67 610.62 635.05C570.24 594.67 368.36 392.78 4.97 29.38C0.56 17.63 0.56 9.55 4.97 5.15C11.81 -1.7 22.6 -1.7 29.44 5.15Z" id="a3PqiqKov"></path><path d="M29.44 5.15C89.98 65.69 574.31 550.03 634.85 610.57C641.7 617.42 641.7 628.2 634.85 635.05C628.23 641.67 617.22 641.67 610.62 635.05C570.24 594.67 368.36 392.78 4.97 29.38C0.56 17.63 0.56 9.55 4.97 5.15C11.81 -1.7 22.6 -1.7 29.44 5.15Z" id="bg0d8ZH82"></path></defs><g><g><g><use xlink:href="#a3PqiqKov" opacity="1" fill="#ff5a5a" fill-opacity="1"></use><g><use xlink:href="#a3PqiqKov" opacity="1" fill-opacity="0" stroke="#000000" stroke-width="1" stroke-opacity="0"></use></g></g><g><use xlink:href="#bg0d8ZH82" opacity="1" fill="#ff5a5a" fill-opacity="1"></use><g><use xlink:href="#bg0d8ZH82" opacity="1" fill-opacity="0" stroke="#000000" stroke-width="1" stroke-opacity="0"></use></g></g></g></g></svg>