<svg xmlns="http://www.w3.org/2000/svg" xmlns:xlink="http://www.w3.org/1999/xlink" version="1.1" style="enable-background:new 0 0 50 50;" xml:space="preserve" width="50" height="50"><rect id="backgroundrect" width="100%" height="100%" x="0" y="0" fill="none" stroke="none"/>


<g class="currentLayer" style=""><title>Layer 1</title><g id="Layer_1" class="selected" fill-opacity="1" fill="#ff5a5a">
	<path d="M44,1H6C3.243,1,1,3.243,1,6v38c0,2.757,2.243,5,5,5h38c2.757,0,5-2.243,5-5V6C49,3.243,46.757,1,44,1z M47,44   c0,1.654-1.346,3-3,3H6c-1.654,0-3-1.346-3-3V6c0-1.654,1.346-3,3-3h38c1.654,0,3,1.346,3,3V44z" id="svg_1" fill="#ff5a5a"/>
</g><g id="svg_2" class="selected" fill-opacity="1" fill="#ff5a5a">
</g></g></svg>